<?xml version="1.0" encoding="utf-8"?>
<!-- Generator: Adobe Illustrator 16.0.0, SVG Export Plug-In . SVG Version: 6.00 Build 0)  -->
<!DOCTYPE svg PUBLIC "-//W3C//DTD SVG 1.1//EN" "http://www.w3.org/Graphics/SVG/1.1/DTD/svg11.dtd">
<svg version="1.1" id="Layer_1" xmlns="http://www.w3.org/2000/svg" xmlns:xlink="http://www.w3.org/1999/xlink" x="0px" y="0px"
	 width="240.004px" height="53.975px" viewBox="0 0 240.004 53.975" enable-background="new 0 0 240.004 53.975"
	 xml:space="preserve">
<g>
	<g>
		<path fill="#231F20" d="M61.467,41.12c-0.5,0-0.938-0.063-1.251-0.188c-0.376-0.124-0.688-0.249-0.938-0.437
			c-0.25-0.251-0.438-0.438-0.625-0.752c-0.125-0.25-0.25-0.562-0.313-0.875h1.375c0.063,0.188,0.125,0.376,0.251,0.563
			c0.063,0.124,0.188,0.312,0.313,0.438c0.125,0.125,0.313,0.25,0.5,0.313c0.188,0.063,0.438,0.125,0.688,0.125
			c0.125,0,0.313-0.063,0.5-0.063c0.125-0.063,0.313-0.125,0.438-0.188s0.188-0.188,0.313-0.313
			c0.063-0.125,0.125-0.312,0.125-0.499c0-0.251-0.063-0.438-0.188-0.626s-0.313-0.376-0.5-0.501s-0.438-0.312-0.688-0.437
			c-0.251-0.126-0.5-0.251-0.813-0.376c-0.251-0.125-0.501-0.313-0.752-0.438c-0.25-0.124-0.5-0.313-0.688-0.5
			c-0.25-0.188-0.375-0.376-0.5-0.626c-0.125-0.188-0.188-0.437-0.188-0.75c0-0.313,0.063-0.626,0.188-0.876
			c0.125-0.313,0.375-0.5,0.625-0.75c0.251-0.188,0.563-0.313,1-0.438c0.376-0.125,0.814-0.188,1.314-0.188
			c0.375,0,0.75,0.063,1.063,0.188c0.313,0.126,0.625,0.251,0.876,0.438s0.438,0.437,0.626,0.688
			c0.188,0.25,0.313,0.563,0.438,0.876h-1.251c-0.063-0.188-0.187-0.375-0.25-0.563c-0.125-0.188-0.251-0.313-0.376-0.438
			c-0.125-0.126-0.313-0.251-0.5-0.313c-0.188-0.125-0.438-0.125-0.688-0.125s-0.5,0-0.688,0.063
			c-0.188,0.124-0.313,0.188-0.438,0.312c-0.063,0.063-0.188,0.188-0.188,0.313c-0.063,0.125-0.063,0.25-0.063,0.376
			c0,0.25,0.063,0.438,0.188,0.624c0.125,0.127,0.251,0.313,0.501,0.438c0.188,0.188,0.438,0.313,0.688,0.438
			c0.25,0.126,0.563,0.313,0.813,0.438c0.25,0.124,0.563,0.251,0.814,0.437c0.249,0.126,0.5,0.313,0.688,0.501
			c0.25,0.188,0.375,0.376,0.5,0.625c0.125,0.188,0.25,0.438,0.25,0.751c0,0.313-0.125,0.626-0.25,0.875
			c-0.125,0.313-0.313,0.563-0.563,0.752c-0.313,0.187-0.625,0.375-1.002,0.499C62.405,41.057,61.967,41.12,61.467,41.12z"/>
		<polygon fill="#231F20" points="72.286,32.927 72.286,33.616 68.221,33.616 68.221,36.243 71.598,36.243 71.598,36.929 
			68.221,36.929 68.221,40.182 72.286,40.182 72.286,40.995 66.283,40.995 66.283,32.927 		"/>
		<path fill="#231F20" d="M77.727,32.74l3.814,8.255h-2.063l-1.002-2.188h-3.126l-1.063,2.188h-1.313l3.876-8.255H77.727z
			 M75.726,37.993h2.438l-1.188-2.563L75.726,37.993z"/>
		<polygon fill="#231F20" points="84.482,37.118 84.482,40.995 82.481,40.995 82.481,32.927 84.482,32.927 84.482,36.43 
			87.733,36.43 87.733,32.927 89.672,32.927 89.672,40.995 87.733,40.995 87.733,37.118 		"/>
		<path fill="#231F20" d="M95.864,41.182c-0.688,0-1.251-0.125-1.813-0.312c-0.563-0.251-1.063-0.501-1.501-0.938
			c-0.375-0.376-0.688-0.813-0.938-1.313c-0.25-0.563-0.374-1.126-0.374-1.751c0-0.563,0.124-1.126,0.374-1.625
			c0.251-0.563,0.563-1.002,0.938-1.314c0.438-0.375,0.938-0.688,1.501-0.875c0.563-0.188,1.126-0.313,1.813-0.313
			c0.438,0,0.813,0.063,1.252,0.125c0.374,0.125,0.749,0.251,1.063,0.438c0.375,0.125,0.688,0.374,0.938,0.625
			c0.313,0.25,0.5,0.5,0.75,0.813c0.188,0.313,0.313,0.624,0.438,1c0.126,0.376,0.126,0.751,0.126,1.126
			c0,0.438,0,0.813-0.126,1.188c-0.124,0.438-0.25,0.751-0.438,1.064c-0.25,0.313-0.438,0.624-0.75,0.875
			c-0.25,0.25-0.563,0.438-0.938,0.625c-0.313,0.188-0.688,0.313-1.063,0.375C96.676,41.12,96.301,41.182,95.864,41.182z
			 M95.864,40.496c0.375,0,0.75-0.126,1.001-0.313c0.312-0.125,0.563-0.375,0.813-0.75c0.187-0.313,0.313-0.688,0.438-1.126
			s0.125-0.876,0.125-1.438c0-0.5,0-0.938-0.125-1.376s-0.251-0.813-0.438-1.063c-0.251-0.313-0.502-0.563-0.813-0.751
			c-0.251-0.187-0.626-0.249-1.001-0.249c-0.438,0-0.75,0.063-1.063,0.249c-0.313,0.188-0.564,0.438-0.751,0.751
			c-0.188,0.251-0.376,0.626-0.438,1.063c-0.124,0.438-0.187,0.876-0.187,1.376c0,0.563,0.063,1.001,0.187,1.438
			c0.063,0.438,0.251,0.813,0.438,1.126c0.187,0.375,0.438,0.625,0.751,0.75C95.114,40.37,95.426,40.496,95.864,40.496z"/>
		<path fill="#231F20" d="M101.993,32.927h3.064c0.5,0,0.938,0.063,1.377,0.126c0.374,0.125,0.687,0.313,0.938,0.5
			c0.25,0.188,0.5,0.438,0.625,0.688s0.188,0.563,0.188,0.875c0,0.25-0.063,0.438-0.125,0.626c-0.125,0.25-0.25,0.438-0.375,0.563
			c-0.188,0.188-0.375,0.374-0.625,0.5c-0.188,0.124-0.438,0.25-0.751,0.313l2.876,3.877h-2.125l-2.689-3.689h-0.376v3.689h-2.001
			V32.927z M103.994,36.617h0.438c0.25,0,0.438,0,0.688-0.063c0.188-0.062,0.375-0.187,0.5-0.312
			c0.188-0.125,0.25-0.313,0.376-0.438c0.062-0.188,0.124-0.438,0.124-0.626c0-0.249-0.063-0.437-0.124-0.624
			c-0.063-0.126-0.126-0.313-0.251-0.438s-0.25-0.251-0.438-0.313c-0.125-0.061-0.313-0.125-0.5-0.125h-0.813V36.617z"/>
		<path fill="#231F20" d="M112.874,41.12c-0.5,0-0.938-0.063-1.313-0.188c-0.313-0.124-0.625-0.249-0.875-0.437
			c-0.313-0.251-0.5-0.438-0.626-0.752c-0.188-0.25-0.25-0.562-0.313-0.875h1.376c0.063,0.188,0.125,0.376,0.188,0.563
			c0.125,0.124,0.188,0.312,0.375,0.438c0.125,0.125,0.313,0.25,0.501,0.313c0.187,0.063,0.375,0.125,0.625,0.125
			c0.188,0,0.376-0.063,0.501-0.063c0.188-0.063,0.313-0.125,0.438-0.188s0.25-0.188,0.313-0.313
			c0.125-0.125,0.125-0.312,0.125-0.499c0-0.251-0.063-0.438-0.188-0.626s-0.25-0.376-0.438-0.501
			c-0.249-0.125-0.438-0.312-0.688-0.437c-0.312-0.126-0.563-0.251-0.812-0.376c-0.251-0.125-0.563-0.313-0.813-0.438
			c-0.25-0.124-0.5-0.313-0.688-0.5c-0.188-0.188-0.375-0.376-0.501-0.626c-0.124-0.188-0.124-0.437-0.124-0.75
			c0-0.313,0.063-0.626,0.187-0.876c0.125-0.313,0.313-0.5,0.626-0.75c0.25-0.188,0.563-0.313,0.938-0.438
			c0.376-0.125,0.813-0.188,1.313-0.188c0.438,0,0.813,0.063,1.126,0.188c0.313,0.126,0.625,0.251,0.875,0.438
			s0.438,0.437,0.626,0.688c0.188,0.25,0.312,0.563,0.375,0.876h-1.251c-0.063-0.188-0.125-0.375-0.25-0.563
			c-0.063-0.188-0.188-0.313-0.313-0.438c-0.188-0.126-0.313-0.251-0.5-0.313c-0.25-0.125-0.438-0.125-0.751-0.125
			c-0.25,0-0.438,0-0.626,0.063c-0.187,0.124-0.313,0.188-0.438,0.312c-0.125,0.063-0.188,0.188-0.25,0.313
			c0,0.125-0.063,0.25-0.063,0.376c0,0.25,0.063,0.438,0.188,0.624c0.125,0.127,0.313,0.313,0.5,0.438
			c0.251,0.188,0.438,0.313,0.751,0.438c0.251,0.126,0.501,0.313,0.813,0.438c0.25,0.124,0.5,0.251,0.813,0.437
			c0.25,0.126,0.5,0.313,0.688,0.501c0.188,0.188,0.376,0.376,0.502,0.625c0.123,0.188,0.187,0.438,0.187,0.751
			c0,0.313-0.063,0.626-0.187,0.875c-0.126,0.313-0.377,0.563-0.627,0.752c-0.25,0.187-0.563,0.375-1,0.499
			C113.813,41.057,113.375,41.12,112.874,41.12z"/>
		<polygon fill="#231F20" points="123.694,32.927 123.694,33.616 119.628,33.616 119.628,36.243 123.006,36.243 123.006,36.929 
			119.628,36.929 119.628,40.182 123.694,40.182 123.694,40.995 117.627,40.995 117.627,32.927 		"/>
		<polygon fill="#231F20" points="128.573,32.927 130.51,32.927 133.262,38.431 136.014,32.927 137.89,32.927 137.89,40.995 
			135.952,40.995 135.952,35.742 133.325,40.995 132.512,40.995 129.823,35.679 129.823,40.995 128.573,40.995 		"/>
		<path fill="#231F20" d="M143.707,32.74l3.752,8.255h-2.001l-1-2.188h-3.127l-1.064,2.188h-1.375l3.939-8.255H143.707z
			 M141.706,37.993h2.438l-1.251-2.563L141.706,37.993z"/>
		<path fill="#231F20" d="M148.459,32.927h3.063c0.501,0,0.939,0.063,1.313,0.126c0.438,0.125,0.752,0.313,1.002,0.5
			c0.25,0.188,0.438,0.438,0.625,0.688c0.125,0.25,0.188,0.563,0.188,0.875c0,0.25-0.063,0.438-0.125,0.626
			c-0.126,0.25-0.249,0.438-0.375,0.563c-0.188,0.188-0.375,0.374-0.626,0.5c-0.188,0.124-0.438,0.25-0.751,0.313l2.877,3.877
			h-2.126l-2.751-3.689h-0.313v3.689h-2.001V32.927z M150.46,36.617h0.438c0.25,0,0.437,0,0.624-0.063
			c0.251-0.062,0.438-0.187,0.563-0.312s0.251-0.313,0.376-0.438c0.063-0.188,0.125-0.438,0.125-0.626
			c0-0.249-0.063-0.437-0.125-0.624c-0.063-0.126-0.125-0.313-0.251-0.438c-0.125-0.125-0.25-0.251-0.438-0.313
			c-0.125-0.061-0.312-0.125-0.5-0.125h-0.813V36.617z"/>
		<rect x="156.589" y="32.865" fill="#231F20" width="2.063" height="8.13"/>
		<polygon fill="#231F20" points="160.655,32.927 161.906,32.927 166.534,38.055 166.534,32.927 167.785,32.927 167.785,41.12 
			166.909,41.12 161.906,35.429 161.906,40.995 160.655,40.995 		"/>
		<polygon fill="#231F20" points="175.789,32.927 175.789,33.616 171.724,33.616 171.724,36.243 175.102,36.243 175.102,36.929 
			171.724,36.929 171.724,40.182 175.789,40.182 175.789,40.995 169.723,40.995 169.723,32.927 		"/>
		<path fill="#231F20" d="M183.419,41.12c-0.5,0-0.876-0.063-1.251-0.188c-0.374-0.124-0.688-0.249-0.938-0.437
			c-0.251-0.251-0.438-0.438-0.626-0.752c-0.125-0.25-0.249-0.562-0.312-0.875h1.374c0.063,0.188,0.127,0.376,0.251,0.563
			c0.062,0.124,0.188,0.312,0.313,0.438c0.125,0.125,0.313,0.25,0.501,0.313c0.188,0.063,0.437,0.125,0.688,0.125
			c0.188,0,0.313-0.063,0.5-0.063c0.126-0.063,0.313-0.125,0.438-0.188s0.249-0.188,0.312-0.313
			c0.063-0.125,0.125-0.312,0.125-0.499c0-0.251-0.063-0.438-0.188-0.626c-0.124-0.188-0.312-0.376-0.5-0.501
			c-0.188-0.125-0.438-0.312-0.688-0.437c-0.251-0.126-0.5-0.251-0.813-0.376c-0.25-0.125-0.5-0.313-0.75-0.438
			c-0.25-0.124-0.5-0.313-0.688-0.5c-0.188-0.188-0.376-0.376-0.501-0.626c-0.125-0.188-0.188-0.437-0.188-0.75
			c0-0.313,0.063-0.626,0.188-0.876c0.188-0.313,0.375-0.5,0.626-0.75c0.25-0.188,0.625-0.313,1-0.438
			c0.376-0.125,0.813-0.188,1.313-0.188c0.376,0,0.751,0.063,1.063,0.188c0.376,0.126,0.626,0.251,0.877,0.438
			c0.25,0.188,0.499,0.437,0.624,0.688c0.188,0.25,0.313,0.563,0.438,0.876h-1.251c-0.063-0.188-0.188-0.375-0.25-0.563
			c-0.125-0.188-0.25-0.313-0.376-0.438c-0.125-0.126-0.312-0.251-0.499-0.313c-0.188-0.125-0.438-0.125-0.688-0.125
			c-0.251,0-0.5,0-0.688,0.063c-0.125,0.124-0.313,0.188-0.375,0.312c-0.126,0.063-0.188,0.188-0.251,0.313s-0.063,0.25-0.063,0.376
			c0,0.25,0.063,0.438,0.188,0.624c0.126,0.127,0.25,0.313,0.501,0.438c0.188,0.188,0.437,0.313,0.688,0.438
			c0.25,0.126,0.563,0.313,0.813,0.438c0.312,0.124,0.563,0.251,0.813,0.437c0.25,0.126,0.5,0.313,0.751,0.501
			c0.187,0.188,0.374,0.376,0.5,0.625c0.125,0.188,0.188,0.438,0.188,0.751c0,0.313-0.063,0.626-0.25,0.875
			c-0.126,0.313-0.313,0.563-0.563,0.752c-0.313,0.187-0.626,0.375-1.002,0.499C184.42,41.057,183.919,41.12,183.419,41.12z"/>
		<polygon fill="#231F20" points="194.239,32.927 194.239,33.616 190.237,33.616 190.237,36.243 193.55,36.243 193.55,36.929 
			190.237,36.929 190.237,40.182 194.239,40.182 194.239,40.995 188.235,40.995 188.235,32.927 		"/>
		<path fill="#231F20" d="M195.865,32.927h3.063c0.501,0,1.002,0.063,1.376,0.126c0.376,0.125,0.688,0.313,0.939,0.5
			c0.313,0.188,0.499,0.438,0.624,0.688c0.126,0.25,0.188,0.563,0.188,0.875c0,0.25-0.063,0.438-0.126,0.626
			c-0.125,0.25-0.249,0.438-0.374,0.563c-0.188,0.188-0.375,0.374-0.563,0.5c-0.25,0.124-0.499,0.25-0.813,0.313l2.877,3.877h-2.127
			l-2.689-3.689h-0.375v3.689h-2.001V32.927z M197.866,36.617h0.438c0.25,0,0.438,0,0.688-0.063
			c0.187-0.062,0.374-0.187,0.499-0.312c0.188-0.125,0.313-0.313,0.376-0.438c0.063-0.188,0.125-0.438,0.125-0.626
			c0-0.249-0.063-0.437-0.125-0.624c-0.063-0.126-0.126-0.313-0.251-0.438s-0.25-0.251-0.438-0.313
			c-0.124-0.061-0.313-0.125-0.5-0.125h-0.813V36.617z"/>
		<polygon fill="#231F20" points="204.682,32.927 207.373,38.494 209.811,32.927 211.062,32.927 207.498,41.12 206.559,41.12 
			202.619,32.927 		"/>
		<rect x="212.125" y="32.865" fill="#231F20" width="2.064" height="8.13"/>
		<path fill="#231F20" d="M218.066,36.929c0,0.563,0.063,1.002,0.251,1.377c0.125,0.438,0.375,0.75,0.626,1.063
			c0.25,0.249,0.562,0.438,0.875,0.563c0.375,0.188,0.688,0.25,1.063,0.25c0.313,0,0.563-0.063,0.813-0.188
			c0.249-0.063,0.5-0.188,0.688-0.376c0.188-0.187,0.375-0.374,0.563-0.563c0.188-0.25,0.375-0.438,0.563-0.688l0.812,0.625
			c-0.188,0.251-0.375,0.563-0.625,0.813c-0.251,0.25-0.563,0.5-0.876,0.688c-0.313,0.188-0.625,0.375-1,0.499
			c-0.375,0.125-0.751,0.188-1.189,0.188c-0.687,0-1.313-0.125-1.875-0.312c-0.626-0.188-1.127-0.501-1.563-0.876
			c-0.375-0.376-0.751-0.813-0.938-1.313c-0.251-0.501-0.376-1.126-0.376-1.752c0-0.624,0.125-1.188,0.313-1.687
			c0.249-0.501,0.562-0.939,1-1.314c0.374-0.375,0.875-0.688,1.438-0.875c0.563-0.251,1.188-0.313,1.877-0.313
			c0.499,0,0.938,0.063,1.313,0.125c0.375,0.125,0.75,0.251,1.063,0.501c0.313,0.188,0.562,0.374,0.813,0.688
			c0.25,0.25,0.5,0.563,0.688,0.876l-0.875,0.563c-0.127-0.249-0.313-0.5-0.563-0.688c-0.188-0.188-0.376-0.376-0.626-0.563
			c-0.188-0.125-0.438-0.25-0.688-0.376c-0.25-0.125-0.501-0.125-0.813-0.125c-0.376,0-0.688,0.063-1.063,0.188
			c-0.313,0.125-0.626,0.375-0.875,0.626c-0.25,0.25-0.438,0.624-0.563,1C218.128,35.992,218.066,36.43,218.066,36.929z"/>
		<polygon fill="#231F20" points="232.013,32.927 232.013,33.616 227.947,33.616 227.947,36.243 231.325,36.243 231.325,36.929 
			227.947,36.929 227.947,40.182 232.013,40.182 232.013,40.995 225.947,40.995 225.947,32.927 		"/>
		<path fill="#231F20" d="M236.391,41.12c-0.501,0-0.876-0.063-1.252-0.188c-0.376-0.124-0.688-0.249-0.938-0.437
			c-0.25-0.251-0.438-0.438-0.626-0.752c-0.124-0.25-0.249-0.562-0.312-0.875h1.375c0.063,0.188,0.124,0.376,0.251,0.563
			c0.063,0.124,0.187,0.312,0.312,0.438c0.125,0.125,0.313,0.25,0.501,0.313s0.438,0.125,0.688,0.125
			c0.124,0,0.312-0.063,0.499-0.063c0.126-0.063,0.313-0.125,0.438-0.188s0.25-0.188,0.313-0.313
			c0.063-0.125,0.123-0.312,0.123-0.499c0-0.251-0.061-0.438-0.187-0.626c-0.125-0.188-0.313-0.376-0.5-0.501
			c-0.188-0.125-0.438-0.312-0.688-0.437c-0.25-0.126-0.501-0.251-0.813-0.376c-0.251-0.125-0.501-0.313-0.75-0.438
			c-0.251-0.124-0.501-0.313-0.688-0.5c-0.251-0.188-0.376-0.376-0.501-0.626c-0.124-0.188-0.187-0.437-0.187-0.75
			c0-0.313,0.063-0.626,0.187-0.876c0.188-0.313,0.376-0.5,0.626-0.75c0.25-0.188,0.626-0.313,1-0.438
			c0.376-0.125,0.813-0.188,1.313-0.188c0.375,0,0.751,0.063,1.064,0.188c0.374,0.126,0.624,0.251,0.875,0.438
			c0.25,0.188,0.5,0.437,0.626,0.688c0.186,0.25,0.312,0.563,0.437,0.876h-1.251c-0.063-0.188-0.188-0.375-0.25-0.563
			c-0.125-0.188-0.249-0.313-0.374-0.438c-0.126-0.126-0.313-0.251-0.501-0.313c-0.188-0.125-0.438-0.125-0.688-0.125
			c-0.251,0-0.5,0-0.688,0.063c-0.125,0.124-0.313,0.188-0.375,0.312c-0.126,0.063-0.188,0.188-0.251,0.313s-0.063,0.25-0.063,0.376
			c0,0.25,0.063,0.438,0.188,0.624c0.126,0.127,0.251,0.313,0.501,0.438c0.188,0.188,0.437,0.313,0.688,0.438
			c0.25,0.126,0.563,0.313,0.813,0.438c0.313,0.124,0.563,0.251,0.813,0.437c0.25,0.126,0.501,0.313,0.751,0.501
			c0.188,0.188,0.376,0.376,0.5,0.625c0.125,0.188,0.188,0.438,0.188,0.751c0,0.313-0.063,0.626-0.251,0.875
			c-0.123,0.313-0.312,0.563-0.562,0.752c-0.313,0.187-0.626,0.375-1.002,0.499C237.391,41.057,236.89,41.12,236.391,41.12z"/>
		<path fill="#231F20" d="M186.233,23.485v-2.939c0-0.313-0.063-0.563-0.188-0.814c-0.063-0.25-0.249-0.437-0.437-0.624
			c-0.188-0.125-0.376-0.313-0.626-0.376c-0.251-0.063-0.563-0.125-0.813-0.125h-4.565v-1.813h4.754c0.374,0,0.75,0.063,1.125,0.188
			c0.313,0.125,0.625,0.375,0.876,0.626c0.25,0.312,0.438,0.624,0.625,1.063c0.126,0.438,0.251,0.938,0.251,1.438v3.378H186.233z"/>
		<path fill="#231F20" d="M158.279,23.485v-2.939c0-0.313-0.063-0.563-0.188-0.814c-0.124-0.25-0.25-0.437-0.438-0.624
			c-0.188-0.125-0.438-0.313-0.688-0.376c-0.25-0.063-0.501-0.125-0.813-0.125h-4.565v-1.813h4.816c0.375,0,0.749,0.063,1.063,0.188
			c0.375,0.125,0.625,0.375,0.938,0.626c0.249,0.312,0.438,0.624,0.563,1.063c0.188,0.438,0.25,0.938,0.25,1.438v3.378H158.279z"/>
		<path fill="#231F20" d="M148.397,23.485v-2.939c0-0.313-0.063-0.563-0.125-0.814c-0.125-0.25-0.313-0.437-0.5-0.624
			c-0.188-0.125-0.375-0.313-0.625-0.376c-0.251-0.063-0.563-0.125-0.813-0.125h-4.565v-1.813h4.754c0.374,0,0.75,0.063,1.125,0.188
			c0.313,0.125,0.625,0.375,0.875,0.626c0.25,0.312,0.5,0.624,0.625,1.063s0.251,0.938,0.251,1.438v3.378H148.397z"/>
		<rect x="199.617" y="12.853" fill="#231F20" width="1.877" height="11.319"/>
		<path fill="#231F20" d="M234.639,24.36c-0.625,0-1.188-0.125-1.688-0.313c-0.5-0.188-0.938-0.499-1.313-0.813
			c-0.438-0.375-0.688-0.751-0.938-1.25c-0.187-0.501-0.312-1.002-0.312-1.564s0.125-1.125,0.312-1.563
			c0.251-0.5,0.501-0.876,0.938-1.25c0.376-0.313,0.813-0.563,1.313-0.751c0.501-0.188,1.063-0.313,1.688-0.313
			c0.375,0,0.75,0.063,1.126,0.125c0.376,0.126,0.688,0.251,1.063,0.376c0.313,0.188,0.563,0.376,0.814,0.563
			c0.25,0.249,0.499,0.5,0.687,0.813c0.188,0.25,0.313,0.563,0.438,0.876c0.063,0.375,0.125,0.688,0.125,1.063
			c0,0.438-0.063,0.813-0.125,1.126c-0.125,0.375-0.25,0.688-0.438,1c-0.188,0.251-0.437,0.563-0.687,0.751
			c-0.251,0.251-0.501,0.438-0.814,0.625c-0.375,0.125-0.687,0.25-1.063,0.376C235.389,24.297,235.014,24.36,234.639,24.36z
			 M234.639,23.671c0.375,0,0.688-0.062,0.938-0.25c0.313-0.124,0.5-0.375,0.687-0.688c0.188-0.251,0.376-0.625,0.438-1.001
			c0.125-0.438,0.188-0.876,0.188-1.313c0-0.5-0.063-0.938-0.188-1.313c-0.063-0.376-0.25-0.751-0.438-1.001
			c-0.187-0.313-0.374-0.5-0.687-0.688c-0.251-0.126-0.563-0.251-0.938-0.251s-0.688,0.125-1.001,0.251
			c-0.249,0.188-0.5,0.375-0.688,0.688c-0.188,0.25-0.313,0.625-0.438,1.001c-0.063,0.374-0.126,0.813-0.126,1.313
			c0,0.438,0.063,0.876,0.126,1.313c0.125,0.376,0.25,0.75,0.438,1.001c0.188,0.313,0.438,0.563,0.688,0.688
			C233.952,23.61,234.264,23.671,234.639,23.671z"/>
		<path fill="#231F20" d="M226.383,16.729h1.814v9.695c0,0.312-0.063,0.562-0.188,0.813c-0.125,0.25-0.25,0.5-0.499,0.688
			c-0.188,0.187-0.501,0.312-0.813,0.437c-0.313,0.063-0.75,0.125-1.188,0.125c-0.25,0-0.501,0-0.688-0.063
			c-0.187-0.063-0.437-0.125-0.563-0.188c-0.188-0.063-0.375-0.125-0.563-0.249c-0.124-0.063-0.313-0.189-0.438-0.251l0.5-0.626
			c0.063,0.063,0.188,0.126,0.313,0.188c0.063,0.063,0.188,0.188,0.313,0.25c0.188,0.063,0.313,0.063,0.437,0.125
			c0.188,0.063,0.313,0.063,0.501,0.063c0.313,0,0.563-0.063,0.751-0.25c0.187-0.188,0.312-0.376,0.312-0.688V16.729z"/>
		<path fill="#231F20" d="M174.976,16.729h1.814v9.695c0,0.312-0.063,0.562-0.125,0.813c-0.126,0.25-0.313,0.5-0.501,0.688
			c-0.251,0.187-0.5,0.312-0.875,0.437c-0.313,0.063-0.688,0.125-1.126,0.125c-0.25,0-0.501,0-0.751-0.063
			c-0.188-0.063-0.374-0.125-0.563-0.188c-0.188-0.063-0.375-0.125-0.5-0.249c-0.188-0.063-0.313-0.189-0.501-0.251l0.563-0.626
			c0.063,0.063,0.125,0.126,0.25,0.188s0.251,0.188,0.376,0.25c0.124,0.063,0.249,0.063,0.437,0.125
			c0.126,0.063,0.313,0.063,0.438,0.063c0.375,0,0.626-0.063,0.813-0.25c0.188-0.188,0.25-0.376,0.25-0.688V16.729z"/>
		<path fill="#231F20" d="M221.381,16.729h1.813v5.442c0,0.312-0.063,0.625-0.188,0.875c-0.125,0.251-0.251,0.438-0.501,0.625
			c-0.188,0.188-0.499,0.375-0.813,0.438c-0.313,0.126-0.751,0.188-1.188,0.188c-0.251,0-0.501-0.063-0.688-0.063
			c-0.188-0.063-0.438-0.126-0.563-0.188c-0.188-0.063-0.375-0.188-0.563-0.25c-0.125-0.063-0.313-0.187-0.438-0.249l0.501-0.688
			c0.063,0.063,0.188,0.188,0.312,0.25c0.063,0.063,0.188,0.125,0.313,0.188c0.188,0.062,0.313,0.124,0.438,0.188
			c0.188,0,0.313,0.063,0.5,0.063c0.312,0,0.563-0.126,0.75-0.25c0.188-0.188,0.313-0.438,0.313-0.689V16.729z"/>
		<path fill="#231F20" d="M217.316,16.729h1.813v5.442c0,0.312-0.063,0.625-0.125,0.875c-0.124,0.251-0.312,0.438-0.499,0.625
			c-0.251,0.188-0.501,0.375-0.877,0.438c-0.312,0.126-0.688,0.188-1.125,0.188c-0.312,0-0.5-0.063-0.75-0.063
			c-0.188-0.063-0.376-0.126-0.563-0.188s-0.374-0.188-0.499-0.25c-0.188-0.063-0.313-0.187-0.501-0.249l0.563-0.688
			c0.063,0.063,0.124,0.188,0.249,0.25s0.251,0.125,0.375,0.188c0.126,0.062,0.251,0.124,0.438,0.188
			c0.125,0,0.313,0.063,0.438,0.063c0.374,0,0.625-0.126,0.813-0.25c0.188-0.188,0.25-0.438,0.25-0.689V16.729z"/>
		<path fill="#231F20" d="M209.31,28.487c-0.625,0-1.188-0.063-1.75-0.25c-0.501-0.188-1.001-0.438-1.377-0.813
			c-0.374-0.313-0.688-0.751-0.938-1.188c-0.188-0.5-0.313-1.063-0.313-1.626c0-0.563,0.126-1.063,0.313-1.563
			s0.501-0.875,0.875-1.251c0.375-0.313,0.813-0.625,1.377-0.813c0.5-0.188,1.125-0.249,1.75-0.249c0.438,0,0.814,0,1.189,0.124
			l-0.188,0.938c-0.251-0.125-0.501-0.188-0.751-0.188c-0.313,0-0.625,0.063-0.938,0.25c-0.313,0.126-0.625,0.313-0.813,0.563
			c-0.249,0.251-0.437,0.563-0.563,0.938c-0.188,0.313-0.25,0.75-0.25,1.251s0.125,0.938,0.25,1.251
			c0.126,0.375,0.313,0.688,0.563,0.938c0.251,0.25,0.501,0.438,0.876,0.563c0.313,0.125,0.625,0.188,0.938,0.188h2.688
			c0.313,0,0.563-0.063,0.751-0.25c0.188-0.188,0.313-0.376,0.313-0.688v-9.882h1.813v9.695c0,0.312-0.063,0.562-0.188,0.813
			c-0.124,0.25-0.249,0.5-0.5,0.688c-0.188,0.187-0.5,0.312-0.813,0.437c-0.312,0.063-0.75,0.125-1.188,0.125H209.31z"/>
		<path fill="#231F20" d="M113.5,24.36c-0.625,0-1.252-0.063-1.752-0.251c-0.563-0.188-1-0.499-1.438-0.812
			c-0.375-0.376-0.688-0.752-0.876-1.251c-0.25-0.438-0.313-1.002-0.313-1.563c0-0.563,0.063-1.127,0.313-1.563
			c0.188-0.501,0.501-0.877,0.876-1.251c0.375-0.313,0.813-0.626,1.313-0.813c0.563-0.188,1.127-0.313,1.752-0.313
			c0.438,0,0.813,0.063,1.188,0.188l-0.188,0.877c-0.188-0.063-0.438-0.125-0.688-0.125c-0.375,0-0.688,0.063-1,0.188
			c-0.314,0.125-0.563,0.312-0.814,0.562c-0.25,0.251-0.438,0.563-0.563,0.939c-0.125,0.374-0.188,0.813-0.188,1.313
			c0,0.499,0.063,0.875,0.188,1.25c0.188,0.376,0.375,0.688,0.625,0.938c0.251,0.25,0.501,0.438,0.814,0.563
			c0.313,0.125,0.625,0.188,1,0.188h8.13c0.313,0,0.563-0.063,0.751-0.25s0.25-0.375,0.25-0.688v-5.754h1.875v5.566
			c0,0.25-0.062,0.563-0.186,0.813c-0.126,0.25-0.314,0.501-0.502,0.688c-0.25,0.188-0.5,0.313-0.813,0.438
			c-0.375,0.063-0.75,0.125-1.188,0.125H113.5z"/>
		<path fill="#231F20" d="M62.78,24.36c-0.625,0-1.25-0.063-1.75-0.251c-0.563-0.188-1.001-0.499-1.377-0.812
			c-0.438-0.376-0.75-0.752-0.938-1.251c-0.25-0.438-0.313-1.002-0.313-1.563c0-0.563,0.063-1.127,0.313-1.563
			c0.188-0.501,0.5-0.877,0.876-1.251c0.375-0.313,0.813-0.626,1.313-0.813c0.563-0.188,1.125-0.313,1.813-0.313
			c0.376,0,0.813,0.063,1.127,0.188l-0.125,0.877c-0.251-0.063-0.5-0.125-0.751-0.125c-0.313,0-0.688,0.063-1.001,0.188
			s-0.563,0.312-0.813,0.562c-0.188,0.251-0.376,0.563-0.563,0.939c-0.125,0.374-0.188,0.813-0.188,1.313
			c0,0.499,0.063,0.875,0.251,1.25c0.124,0.376,0.313,0.688,0.562,0.938c0.251,0.25,0.501,0.438,0.813,0.563
			s0.625,0.188,1.001,0.188h8.881c0.313,0,0.563-0.063,0.75-0.25c0.188-0.188,0.313-0.375,0.313-0.688v-5.754h1.813v5.566
			c0,0.25-0.063,0.563-0.188,0.813s-0.25,0.501-0.5,0.688c-0.188,0.188-0.5,0.313-0.813,0.438c-0.312,0.063-0.749,0.125-1.188,0.125
			H62.78z"/>
		<path fill="#231F20" d="M193.3,24.36c-0.5,0-0.875-0.063-1.188-0.188c-0.374-0.126-0.625-0.251-0.875-0.438
			c-0.188-0.187-0.376-0.375-0.5-0.625c-0.063-0.313-0.126-0.563-0.126-0.876v-5.44h1.814v5.69c0,0.251,0.063,0.501,0.25,0.688
			c0.188,0.126,0.438,0.25,0.813,0.25h0.188l1.188-0.063c0.313,0,0.563-0.062,0.751-0.25c0.188-0.125,0.25-0.375,0.25-0.626v-9.568
			h1.876v9.318c0,0.313-0.063,0.563-0.187,0.876c-0.127,0.25-0.251,0.438-0.501,0.625c-0.25,0.188-0.501,0.313-0.813,0.438
			c-0.375,0.125-0.75,0.188-1.188,0.188h-1.563H193.3z"/>
		<path fill="#231F20" d="M165.721,24.36c-0.438,0-0.813-0.063-1.127-0.188c-0.374-0.126-0.625-0.251-0.875-0.438
			c-0.188-0.187-0.375-0.375-0.501-0.625c-0.062-0.313-0.125-0.563-0.125-0.876v-9.318h1.814v9.568c0,0.251,0.063,0.501,0.25,0.688
			c0.188,0.126,0.438,0.25,0.813,0.25h0.188l1.188-0.063c0.313,0,0.563-0.062,0.751-0.25c0.188-0.125,0.251-0.375,0.251-0.626
			v-9.568h1.813v9.318c0,0.313,0,0.563-0.127,0.876c-0.123,0.25-0.312,0.438-0.499,0.625c-0.25,0.188-0.501,0.313-0.875,0.438
			c-0.313,0.125-0.688,0.188-1.127,0.188h-1.563H165.721z"/>
		<path fill="#231F20" d="M129.885,23.421h-0.188c-0.375,0-0.625-0.124-0.813-0.25c-0.188-0.188-0.25-0.438-0.25-0.688v-9.568
			h-1.814v9.318c0,0.313,0.063,0.563,0.125,0.876c0.125,0.25,0.313,0.438,0.5,0.625c0.251,0.188,0.501,0.313,0.877,0.438
			c0.313,0.125,0.688,0.188,1.125,0.188h1.502v-0.938H129.885z"/>
		<path fill="#231F20" d="M141.768,23.421h5.754l14.509-0.063c0.313,0,0.563-0.062,0.751-0.25c0.187-0.125,0.312-0.375,0.312-0.626
			v-9.568h1.814v9.318c0,0.313-0.063,0.563-0.188,0.876c-0.126,0.25-0.251,0.438-0.5,0.625c-0.188,0.188-0.501,0.313-0.813,0.438
			c-0.313,0.125-0.75,0.188-1.188,0.188h-20.45V23.421z"/>
		<path fill="#231F20" d="M176.477,24.36h13.259c0.438,0,0.875-0.063,1.188-0.188c0.313-0.126,0.625-0.251,0.813-0.438
			c0.249-0.187,0.437-0.375,0.5-0.625c0.125-0.313,0.188-0.563,0.188-0.876v-5.44h-1.814v5.69c0,0.251-0.125,0.501-0.312,0.688
			c-0.188,0.126-0.438,0.25-0.751,0.25h-0.251l-13.384-0.063L176.477,24.36z"/>
		<polygon fill="#231F20" points="226.822,24.36 234.639,24.36 232.826,23.421 226.822,23.421 		"/>
		<path fill="#231F20" d="M135.827,24.36c-0.625,0-1.188-0.125-1.688-0.313c-0.563-0.188-1.001-0.499-1.376-0.813
			c-0.375-0.375-0.688-0.751-0.875-1.25c-0.251-0.501-0.313-1.002-0.313-1.564s0.062-1.125,0.313-1.563
			c0.188-0.5,0.5-0.876,0.875-1.25c0.375-0.313,0.813-0.563,1.376-0.751c0.501-0.188,1.063-0.313,1.688-0.313
			c0.375,0,0.751,0.063,1.126,0.125c0.374,0.126,0.688,0.251,1.001,0.376c0.313,0.188,0.625,0.376,0.875,0.563
			c0.25,0.249,0.5,0.5,0.625,0.813c0.188,0.25,0.376,0.563,0.438,0.876c0.126,0.375,0.188,0.688,0.188,1.063
			c0,0.438-0.063,0.813-0.188,1.126c-0.062,0.375-0.25,0.688-0.438,1c-0.125,0.251-0.375,0.563-0.625,0.751
			c-0.25,0.251-0.563,0.438-0.875,0.625c-0.313,0.125-0.627,0.25-1.001,0.376C136.578,24.297,136.202,24.36,135.827,24.36z
			 M135.827,23.671c0.313,0,0.625-0.062,0.938-0.25c0.251-0.124,0.501-0.375,0.688-0.688c0.188-0.251,0.313-0.625,0.438-1.001
			c0.063-0.438,0.125-0.876,0.125-1.313c0-0.5-0.063-0.938-0.125-1.313c-0.125-0.376-0.25-0.751-0.438-1.001
			c-0.188-0.313-0.438-0.5-0.688-0.688c-0.313-0.126-0.625-0.251-0.938-0.251c-0.375,0-0.688,0.125-1,0.251
			c-0.25,0.188-0.501,0.375-0.688,0.688c-0.188,0.25-0.313,0.625-0.438,1.001c-0.063,0.374-0.125,0.813-0.125,1.313
			c0,0.438,0.062,0.876,0.125,1.313c0.124,0.376,0.25,0.75,0.438,1.001c0.188,0.313,0.438,0.563,0.688,0.688
			C135.139,23.61,135.452,23.671,135.827,23.671z"/>
		<polygon fill="#231F20" points="130.573,24.36 135.827,24.36 133.951,23.421 130.573,23.421 		"/>
		<path fill="#231F20" d="M235.389,14.478c0,0.563-0.437,1.001-1,1.001s-1-0.438-1-1.001c0-0.5,0.437-1,1-1
			S235.389,13.978,235.389,14.478z"/>
		<path fill="#231F20" d="M155.402,14.478c0,0.563-0.438,1.001-1.002,1.001c-0.499,0-0.938-0.438-0.938-1.001c0-0.5,0.438-1,0.938-1
			C154.963,13.478,155.402,13.978,155.402,14.478z"/>
		<path fill="#231F20" d="M118.252,14.478c0,0.563-0.438,1.001-1,1.001s-1-0.438-1-1.001c0-0.5,0.438-1,1-1
			S118.252,13.978,118.252,14.478z"/>
		<path fill="#231F20" d="M120.504,14.478c0,0.563-0.438,1.001-1,1.001c-0.5,0-0.938-0.438-0.938-1.001c0-0.5,0.438-1,0.938-1
			C120.067,13.478,120.504,13.978,120.504,14.478z"/>
		<path fill="#231F20" d="M62.905,14.478c0,0.563-0.438,1.001-1,1.001s-1-0.438-1-1.001c0-0.5,0.438-1,1-1
			S62.905,13.978,62.905,14.478z"/>
		<path fill="#231F20" d="M65.157,14.478c0,0.563-0.438,1.001-1,1.001s-1-0.438-1-1.001c0-0.5,0.438-1,1-1
			S65.157,13.978,65.157,14.478z"/>
		<path fill="#231F20" d="M70.473,26.424c0,0.499-0.438,1-1,1c-0.501,0-1.002-0.501-1.002-1c0-0.563,0.501-1.002,1.002-1.002
			C70.036,25.422,70.473,25.861,70.473,26.424z"/>
		<path fill="#231F20" d="M72.724,26.424c0,0.499-0.438,1-1.001,1c-0.5,0-0.938-0.501-0.938-1c0-0.563,0.438-1.002,0.938-1.002
			C72.287,25.422,72.724,25.861,72.724,26.424z"/>
		<path fill="#231F20" d="M192.55,26.424c0,0.499-0.438,1-0.938,1c-0.563,0-1.002-0.501-1.002-1c0-0.563,0.438-1.002,1.002-1.002
			C192.112,25.422,192.55,25.861,192.55,26.424z"/>
		<path fill="#231F20" d="M89.172,23.485v-2.939c0-0.313-0.063-0.563-0.188-0.814c-0.063-0.25-0.25-0.437-0.438-0.624
			c-0.188-0.125-0.375-0.313-0.626-0.376c-0.249-0.063-0.563-0.125-0.813-0.125h-4.564v-1.813h4.752
			c0.377,0,0.751,0.063,1.126,0.188c0.313,0.125,0.626,0.375,0.876,0.626c0.25,0.312,0.5,0.624,0.625,1.063s0.25,0.938,0.25,1.438
			v3.378H89.172z"/>
		<rect x="102.555" y="12.853" fill="#231F20" width="1.877" height="11.319"/>
		<path fill="#231F20" d="M77.915,16.729h1.814v9.695c0,0.312,0,0.562-0.125,0.813c-0.125,0.25-0.313,0.5-0.501,0.688
			c-0.249,0.187-0.501,0.312-0.875,0.437c-0.313,0.063-0.688,0.125-1.126,0.125c-0.251,0-0.5,0-0.688-0.063
			c-0.249-0.063-0.438-0.125-0.625-0.188s-0.375-0.125-0.501-0.249c-0.188-0.063-0.313-0.189-0.438-0.251l0.501-0.626
			c0.063,0.063,0.126,0.126,0.25,0.188c0.126,0.063,0.25,0.188,0.376,0.25c0.125,0.063,0.25,0.063,0.438,0.125
			c0.125,0.063,0.313,0.063,0.5,0.063c0.313,0,0.563-0.063,0.751-0.25c0.187-0.188,0.249-0.376,0.249-0.688V16.729z"/>
		<path fill="#231F20" d="M96.239,24.36c-0.5,0-0.875-0.063-1.188-0.188c-0.313-0.126-0.625-0.251-0.813-0.438
			c-0.25-0.187-0.438-0.375-0.501-0.625c-0.126-0.313-0.188-0.563-0.188-0.876v-5.44h1.814v5.69c0,0.251,0.125,0.501,0.313,0.688
			c0.188,0.126,0.438,0.25,0.751,0.25h0.249l1.126-0.063c0.313,0,0.563-0.062,0.751-0.25c0.188-0.125,0.25-0.375,0.25-0.626v-9.568
			h1.876v9.318c0,0.313-0.062,0.563-0.187,0.876c-0.126,0.25-0.251,0.438-0.502,0.625c-0.25,0.188-0.5,0.313-0.812,0.438
			c-0.376,0.125-0.751,0.188-1.188,0.188h-1.563H96.239z"/>
		<path fill="#231F20" d="M79.417,24.36h13.258c0.5,0,0.875-0.063,1.188-0.188c0.313-0.126,0.626-0.251,0.813-0.438
			c0.25-0.187,0.438-0.375,0.5-0.625c0.125-0.313,0.188-0.563,0.188-0.876v-5.44h-1.814v5.69c0,0.251-0.124,0.501-0.313,0.688
			c-0.188,0.126-0.438,0.25-0.75,0.25h-0.25l-13.383-0.063L79.417,24.36z"/>
		<path fill="#231F20" d="M95.489,26.424c0,0.499-0.438,1-0.938,1c-0.562,0-1.001-0.501-1.001-1c0-0.563,0.439-1.002,1.001-1.002
			C95.051,25.422,95.489,25.861,95.489,26.424z"/>
		<rect x="64.719" y="16.667" fill="#231F20" width="1.939" height="7.067"/>
		<path fill="#231F20" d="M63.282,16.604c0,0,1.563,0.125,2.25,1.313c0.688,1.189-0.438,0.626-0.438,0.626s-0.938-1-2.063-1.063
			L63.282,16.604z"/>
	</g>
	<g>
		<path fill="#00A2AE" d="M25.195,12.04c1,0.125,2.502,0.375,3.876,1.063c0.752,0.438,1.378,0.938,1.814,1.501
			c0.501,0.688,0.751,1.563,0.813,2.501v0.063l-0.063,0.063c-0.063,2.501-1.125,5.565-3.127,9.13l-0.188,0.25
			c-0.438,0.813-1.063,2.063-1.313,3.502c-0.313,1.688-0.188,3.314,0.375,5.003l1.251-0.438c-1.126-3.19-0.125-5.628,0.875-7.38
			l0.125-0.25c2.127-3.752,3.253-7.067,3.378-9.756v-0.125v-0.063c0-2.251-1.188-4.065-3.315-5.191
			c-1.125-0.563-2.251-0.875-3.252-1L25.195,12.04z"/>
		<path fill="#00A2AE" d="M49.397,17.606c-0.813-2.502-2.063-4.878-3.689-7.005c-1.563-2.126-3.44-3.94-5.629-5.441
			c-2.127-1.563-4.565-2.751-7.066-3.502l-0.813-0.25L18.377,13.666v0.313c0,3.627-2.751,7.567-2.751,7.567l-0.188,0.25l0.063,0.25
			c0,0.062,0.125,0.625,0.5,1.188c0.375,0.563,1.126,1.188,2.502,1.126h0.313l0.188-0.25c1.438-2.063,3.378-3.315,5.941-3.69
			c-0.813,0.876-1.626,1.813-2.251,2.877c-1.313,1.939-1.875,3.877-1.814,5.754L2.868,32.678c-0.688-2.251-1.063-4.628-1.063-7.004
			c0-0.188,0-0.438,0-0.626C3.556,5.223,23.568,6.099,23.568,6.099l6.191-5.191c-1.563-0.25-3.001-0.313-4.127-0.375
			c-0.688,0-1.313,0-1.938,0.063c-0.375,0.063-0.626,0.063-0.626,0.063c-2.501,0.25-4.94,0.876-7.254,1.876
			c-3.002,1.251-5.692,3.064-8.005,5.378c-2.251,2.314-4.065,5.003-5.378,7.942c-1.313,3.127-1.938,6.441-1.938,9.819
			c0,3.377,0.625,6.691,1.938,9.756c1.313,3.002,3.127,5.691,5.378,8.004c2.313,2.314,5.003,4.128,8.005,5.379
			c0.062,0.063,0.125,0.063,0.187,0.063l0.563-1.188c-0.063,0-0.125-0.063-0.188-0.063c-2.001-0.876-3.815-1.939-5.503-3.251h5.878
			c-0.25-0.376-0.438-0.751-0.625-1.189H9.497c-0.25-0.25-0.5-0.438-0.688-0.688c-0.312-0.25-0.562-0.563-0.875-0.875h7.63
			c-0.125-0.376-0.188-0.752-0.25-1.189h-8.38c-1.313-1.688-2.439-3.501-3.252-5.503c-0.125-0.313-0.25-0.625-0.375-1l18.199-2.189
			c0.688,1.626,1.876,3.189,3.69,4.628c1.813,1.564,2.813,2.939,2.813,4.127c0,0.939-0.5,1.689-0.938,2.189
			c-0.063,0.125-0.188,0.188-0.25,0.313l1.125,0.75c0-0.063,0.125-0.124,0.188-0.25c0.438-0.563,1.251-1.563,1.188-3.002
			c0-1.625-1.063-3.313-3.314-5.127c-1.25-1.063-2.251-2.189-2.877-3.314c-0.563-1.001-0.875-2.002-0.938-3.065
			c-0.063-1.563,0.438-3.19,1.563-5.003c1.001-1.438,2.188-2.752,3.377-3.94l1.125-1.125h-1.626
			c-2.001,0.063-3.814,0.438-5.253,1.25c-1.251,0.688-2.376,1.626-3.252,2.877c-0.438-0.063-0.75-0.251-1-0.563
			c-0.125-0.125-0.188-0.313-0.25-0.438c0.625-0.938,2.689-4.316,2.814-7.755l12.82-11.382h0.126c2.377,0.75,4.628,1.876,6.69,3.314
			c2.064,1.438,3.815,3.19,5.317,5.191c1.501,2.001,2.688,4.253,3.501,6.629c0.813,2.439,1.251,5.003,1.251,7.63
			c0,3.189-0.625,6.316-1.876,9.255c-0.813,2.001-1.938,3.815-3.252,5.503h-5.691c0.251-1.938,0.688-3.877,1.438-5.753
			c0.688-1.689,1.563-3.377,2.627-5.003c1.751-2.815,3.503-4.44,3.503-4.44l1.75-1.626l-15.197,3.19
			c1.001-1.939,1.814-3.815,2.315-5.503C39.391,8.6,31.699,5.723,31.699,5.723l-2.563,2.689l-0.813,0.75
			c0.938,0.25,1.751,0.626,2.563,1.063c1.313,0.813,2.252,1.876,2.814,3.126c0.688,1.439,0.876,3.252,0.563,5.253
			c-0.375,2.502-1.501,5.316-3.252,8.568l-0.125,0.25l-0.063,0.063c-0.438,0.813-1.063,2.126-1.376,3.753
			c-0.376,1.688-0.249,3.502,0.313,5.315c1.752,5.816-1.188,7.942-2.125,8.443h-0.126l-0.062,0.063
			c-0.877,0.438-1.814,0.624-2.815,0.624c-1,0-2.001-0.249-2.876-0.687c-0.313-0.188-0.625-0.376-0.876-0.625l0,0
			c-0.5-0.438-0.813-0.814-1.063-1.314c-1.876-3.314,2.001-6.191,2.001-6.191l-3.065-2.564c-1.188,1.375-1.813,3.189-1.813,5.002
			c0,4.252,3.439,7.756,7.692,7.756c1.189,0,2.377-0.314,3.439-0.814l0.125-0.063c0.501-0.25,1.814-1.063,2.689-2.752
			c0.938-1.938,1-4.377,0.125-7.254c-0.625-2.189-0.499-4.065-0.063-5.566l10.319-1.251c-1,1.563-1.814,3.189-2.438,4.815
			c-0.814,2.064-1.376,4.19-1.563,6.253h-4.003c0,0.438-0.063,0.813-0.125,1.189h10.132c-0.251,0.313-0.563,0.625-0.813,0.875
			c-0.251,0.25-0.5,0.438-0.751,0.688h-8.943c-0.124,0.313-0.25,0.688-0.438,1.001c0,0.063-0.063,0.124-0.063,0.188h8.068
			c-1.626,1.312-3.503,2.375-5.442,3.251c-0.374,0.125-0.687,0.249-1.063,0.376l0.688,1.188c0.312-0.125,0.625-0.25,0.875-0.375
			c3.002-1.251,5.691-3.064,8.006-5.379c2.313-2.313,4.127-5.002,5.378-8.004c1.313-3.065,2.002-6.379,2.002-9.756
			C50.774,22.921,50.273,20.169,49.397,17.606z"/>
		<path fill="#00A2AE" d="M19.003,53.502c-0.312,0-0.563,0-0.813-0.063c-0.25-0.125-0.5-0.188-0.625-0.313
			c-0.188-0.188-0.313-0.313-0.438-0.5c-0.063-0.189-0.125-0.375-0.188-0.625h0.938c0,0.125,0.062,0.25,0.125,0.375
			c0.062,0.125,0.125,0.25,0.25,0.313c0.063,0.063,0.188,0.188,0.313,0.188c0.125,0.063,0.25,0.063,0.438,0.063
			c0.125,0,0.25,0,0.313,0c0.125,0,0.25-0.063,0.313-0.125c0.125-0.063,0.188-0.125,0.25-0.188c0-0.125,0.063-0.189,0.063-0.313
			c0-0.188-0.063-0.313-0.125-0.438c-0.063-0.127-0.188-0.25-0.313-0.377c-0.188-0.063-0.313-0.186-0.5-0.248
			c-0.188-0.125-0.312-0.188-0.5-0.25c-0.188-0.127-0.375-0.189-0.563-0.314c-0.125-0.125-0.312-0.188-0.438-0.313
			c-0.125-0.125-0.25-0.248-0.313-0.438c-0.125-0.125-0.125-0.313-0.125-0.499c0-0.251,0-0.438,0.125-0.626
			c0.063-0.188,0.25-0.313,0.376-0.438c0.188-0.125,0.438-0.25,0.688-0.313c0.25-0.125,0.563-0.125,0.876-0.125
			c0.25,0,0.5,0,0.75,0.125c0.188,0.063,0.375,0.125,0.563,0.313c0.188,0.125,0.313,0.249,0.438,0.438
			c0.125,0.188,0.188,0.375,0.25,0.563h-0.813c-0.062-0.125-0.124-0.25-0.188-0.375c-0.062-0.125-0.125-0.188-0.25-0.313
			c-0.063-0.063-0.188-0.124-0.313-0.187c-0.125-0.063-0.313-0.063-0.5-0.063c-0.125,0-0.313,0-0.438,0.063
			c-0.063,0-0.188,0.063-0.251,0.187c-0.063,0.063-0.125,0.126-0.188,0.188c0,0.125,0,0.188,0,0.25c0,0.188,0,0.313,0.125,0.438
			c0.063,0.063,0.188,0.188,0.313,0.313c0.124,0.063,0.312,0.188,0.5,0.252c0.125,0.123,0.312,0.186,0.5,0.311
			c0.188,0.063,0.375,0.188,0.563,0.313c0.187,0.063,0.312,0.189,0.5,0.314c0.125,0.125,0.25,0.25,0.313,0.373
			c0.063,0.189,0.125,0.313,0.125,0.502c0,0.25-0.063,0.438-0.125,0.625c-0.125,0.188-0.25,0.375-0.438,0.5
			c-0.125,0.125-0.375,0.25-0.625,0.313C19.691,53.502,19.378,53.502,19.003,53.502z"/>
		<path fill="#00A2AE" d="M31.386,53.502c-0.376,0-0.626,0-0.875-0.063c-0.251-0.125-0.438-0.188-0.626-0.313
			c-0.188-0.188-0.313-0.313-0.376-0.5c-0.125-0.189-0.188-0.375-0.25-0.625h0.938c0.063,0.125,0.063,0.25,0.125,0.375
			s0.126,0.25,0.249,0.313c0.063,0.063,0.188,0.188,0.313,0.188c0.125,0.063,0.313,0.063,0.438,0.063c0.125,0,0.25,0,0.375,0
			s0.187-0.063,0.313-0.125c0.063-0.063,0.123-0.125,0.187-0.188c0.063-0.125,0.063-0.189,0.063-0.313c0-0.188,0-0.313-0.126-0.438
			c-0.061-0.127-0.188-0.25-0.312-0.377c-0.125-0.063-0.313-0.186-0.438-0.248c-0.188-0.125-0.376-0.188-0.563-0.25
			c-0.188-0.127-0.374-0.189-0.5-0.314c-0.188-0.125-0.375-0.188-0.5-0.313c-0.126-0.125-0.251-0.248-0.313-0.438
			c-0.063-0.125-0.125-0.313-0.125-0.499c0-0.251,0.063-0.438,0.125-0.626c0.125-0.188,0.25-0.313,0.438-0.438
			c0.188-0.125,0.375-0.25,0.624-0.313c0.251-0.125,0.563-0.125,0.877-0.125c0.313,0,0.563,0,0.75,0.125
			c0.25,0.063,0.438,0.125,0.563,0.313c0.188,0.125,0.313,0.249,0.438,0.438c0.125,0.188,0.249,0.375,0.313,0.563h-0.876
			c-0.063-0.125-0.063-0.25-0.126-0.375c-0.125-0.125-0.188-0.188-0.25-0.313c-0.126-0.063-0.249-0.124-0.376-0.187
			c-0.124-0.063-0.249-0.063-0.437-0.063c-0.188,0-0.313,0-0.438,0.063c-0.125,0-0.25,0.063-0.313,0.187
			c-0.063,0.063-0.126,0.126-0.126,0.188c-0.061,0.125-0.061,0.188-0.061,0.25c0,0.188,0.061,0.313,0.123,0.438
			c0.063,0.063,0.188,0.188,0.313,0.313c0.188,0.063,0.313,0.188,0.501,0.252c0.188,0.123,0.375,0.186,0.563,0.311
			c0.187,0.063,0.374,0.188,0.499,0.313c0.188,0.063,0.376,0.189,0.501,0.314s0.25,0.25,0.313,0.373
			c0.124,0.189,0.124,0.313,0.124,0.502c0,0.25,0,0.438-0.124,0.625c-0.063,0.188-0.188,0.375-0.375,0.5
			c-0.188,0.125-0.438,0.25-0.688,0.313C32.012,53.502,31.699,53.502,31.386,53.502z"/>
		<polygon fill="#00A2AE" points="22.067,48.063 23.318,48.063 25.195,51.75 27.071,48.063 28.322,48.063 28.322,53.44 
			27.008,53.44 27.008,49.938 25.195,53.44 24.694,53.44 22.88,49.875 22.88,53.44 22.067,53.44 		"/>
	</g>
</g>
</svg>
